<svg xmlns="http://www.w3.org/2000/svg" xmlns:xlink="http://www.w3.org/1999/xlink" version="1.1" x="0px" y="0px" viewBox="0 0 100 100" enable-background="new 0 0 100 100" xml:space="preserve" style="max-width:100%" height="100%"><path fill="currentColor" d="M41.859,86.088c0.059,0.013,0.12,0.026,0.181,0.04c0.567,0.124,1.134,0.234,1.706,0.332  c0.066,0.012,0.132,0.022,0.198,0.033c0.576,0.096,1.152,0.176,1.729,0.244c0.056,0.006,0.111,0.014,0.165,0.02  c0.605,0.067,1.21,0.121,1.819,0.16c0.024,0.002,0.048,0.004,0.072,0.006c4.503,0.274,9.042-0.272,13.382-1.633  c0.033-0.012,0.066-0.021,0.1-0.033c0.579-0.184,1.157-0.383,1.729-0.596c0.047-0.018,0.093-0.034,0.138-0.052  c0.564-0.214,1.126-0.441,1.683-0.683c0.042-0.019,0.085-0.037,0.127-0.056c0.567-0.249,1.13-0.514,1.687-0.791  c0.025-0.014,0.051-0.025,0.076-0.039c3.429-1.729,6.648-4.015,9.512-6.878c4.136-4.136,7.08-9.007,8.85-14.191l0,0  c0.003-0.007,0.005-0.016,0.007-0.022c0.214-0.628,0.407-1.259,0.586-1.895c0.027-0.102,0.055-0.201,0.083-0.303  c0.15-0.556,0.288-1.114,0.413-1.676c0.027-0.118,0.053-0.236,0.078-0.354c0.121-0.574,0.229-1.147,0.323-1.725  c0.014-0.089,0.032-0.176,0.046-0.264c0.315-2.028,0.464-4.076,0.442-6.125c-0.002-0.088-0.005-0.176-0.006-0.264  c-0.011-0.581-0.034-1.159-0.071-1.738c-0.008-0.13-0.02-0.261-0.028-0.392c-0.042-0.553-0.096-1.104-0.161-1.655  c-0.015-0.124-0.029-0.247-0.045-0.37c-0.08-0.609-0.174-1.217-0.283-1.822c-0.009-0.05-0.017-0.103-0.025-0.153  c-0.252-1.356-0.579-2.7-0.983-4.027c-0.02-0.062-0.041-0.124-0.061-0.186c-0.178-0.576-0.373-1.149-0.58-1.718  c-0.048-0.129-0.098-0.256-0.145-0.384c-0.193-0.511-0.399-1.02-0.615-1.524c-0.058-0.134-0.116-0.269-0.176-0.404  c-0.231-0.521-0.479-1.04-0.735-1.553c-0.049-0.097-0.094-0.194-0.144-0.291c-1.715-3.346-3.968-6.489-6.77-9.291  c-8.302-8.302-19.566-11.825-30.391-10.587c-0.008,0.001-0.017,0.002-0.025,0.004c-0.646,0.074-1.29,0.166-1.933,0.274  c-0.021,0.004-0.041,0.007-0.062,0.01c-4.594,0.783-9.065,2.437-13.154,4.959c-0.003,0.001-0.005,0.003-0.007,0.004  c-0.576,0.355-1.144,0.729-1.704,1.12c-0.016,0.011-0.031,0.021-0.047,0.033c-0.56,0.391-1.111,0.798-1.653,1.224  c-0.002,0.001-0.004,0.003-0.005,0.004l0,0c-1.157,0.909-2.278,1.888-3.345,2.955c-5.149,5.149-8.453,11.438-9.932,18.054l0,0  c0,0.001,0,0.003,0,0.005c-0.135,0.604-0.255,1.212-0.359,1.821c-0.001,0.008-0.003,0.019-0.004,0.027  c-0.104,0.604-0.191,1.21-0.264,1.817c-0.002,0.013-0.002,0.025-0.004,0.038c-0.072,0.606-0.131,1.214-0.173,1.823  c0,0.012-0.001,0.023-0.002,0.035c-0.042,0.613-0.069,1.226-0.081,1.84c0,0.005,0,0.011,0,0.016  c-0.178,9.697,3.421,19.449,10.821,26.848c4.656,4.656,10.248,7.803,16.167,9.457c0.04,0.012,0.08,0.022,0.118,0.033  C40.697,85.813,41.278,85.957,41.859,86.088z M65.019,81.296c-0.253,0.121-0.509,0.238-0.765,0.354  c-0.277,0.125-0.558,0.247-0.837,0.363c-0.21,0.088-0.418,0.174-0.629,0.257c-0.339,0.134-0.681,0.263-1.022,0.385  c-0.156,0.057-0.313,0.112-0.468,0.166c-0.408,0.14-0.818,0.272-1.229,0.396c-0.098,0.03-0.193,0.06-0.29,0.089  c-0.479,0.139-0.962,0.27-1.445,0.389c-0.033,0.008-0.065,0.017-0.101,0.025C52.237,85.172,45.927,85.012,40,83.239V55.772  l25.356,25.356C65.242,81.185,65.131,81.242,65.019,81.296z M79.938,32.418c0.034,0.059,0.065,0.119,0.099,0.177  c0.26,0.45,0.513,0.903,0.752,1.363c0.052,0.099,0.098,0.2,0.147,0.299c0.22,0.433,0.434,0.866,0.634,1.306  c0.042,0.092,0.079,0.186,0.12,0.277c0.201,0.454,0.396,0.909,0.577,1.37c0.032,0.079,0.06,0.158,0.089,0.236  c0.186,0.479,0.361,0.959,0.524,1.445c0.022,0.068,0.043,0.137,0.065,0.205c0.163,0.496,0.316,0.995,0.457,1.497  c0.019,0.066,0.034,0.132,0.054,0.199c0.137,0.503,0.265,1.01,0.38,1.52c0.015,0.07,0.029,0.141,0.046,0.212  c0.109,0.501,0.208,1.003,0.296,1.508c0.014,0.085,0.029,0.172,0.044,0.259c0.08,0.485,0.149,0.971,0.208,1.458  c0.015,0.109,0.027,0.217,0.04,0.325c0.052,0.459,0.094,0.92,0.127,1.379c0.011,0.14,0.021,0.279,0.031,0.419  c0.025,0.42,0.04,0.841,0.052,1.263c0.004,0.179,0.011,0.358,0.012,0.537c0.005,0.37-0.003,0.74-0.011,1.11  c-0.005,0.228-0.006,0.457-0.016,0.685c-0.013,0.302-0.035,0.604-0.056,0.904c-0.02,0.292-0.035,0.584-0.063,0.875  c-0.018,0.195-0.045,0.391-0.066,0.587c-0.234,2.13-0.662,4.242-1.289,6.308H52.216L79.938,32.418z M30.161,21.515  c0.399-0.278,0.802-0.547,1.21-0.807c0.1-0.064,0.201-0.125,0.301-0.188c0.364-0.228,0.732-0.448,1.104-0.661  c0.16-0.09,0.321-0.179,0.482-0.268c0.313-0.172,0.626-0.34,0.943-0.502c0.234-0.12,0.47-0.235,0.706-0.349  c0.246-0.119,0.493-0.236,0.741-0.349c0.318-0.144,0.638-0.282,0.959-0.416c0.169-0.072,0.338-0.143,0.509-0.21  c0.406-0.162,0.814-0.315,1.225-0.462c0.088-0.031,0.177-0.063,0.266-0.094c0.491-0.169,0.984-0.33,1.48-0.477  c0.012-0.003,0.024-0.007,0.037-0.011c4.269-1.259,8.733-1.682,13.133-1.271c0.056,0.005,0.111,0.011,0.167,0.017  c0.474,0.047,0.946,0.104,1.418,0.169c0.119,0.017,0.237,0.035,0.356,0.053c0.252,0.038,0.504,0.083,0.755,0.127l0.49,32.156  L30.056,21.588C30.091,21.564,30.126,21.54,30.161,21.515z M20.177,67.777c-0.231-0.388-0.449-0.781-0.665-1.177  c-0.04-0.074-0.084-0.147-0.123-0.223c-0.198-0.37-0.385-0.745-0.569-1.122c-0.052-0.105-0.105-0.209-0.156-0.314  c-0.176-0.372-0.343-0.747-0.506-1.124c-0.047-0.112-0.098-0.224-0.146-0.336c-0.159-0.377-0.309-0.758-0.453-1.14  c-0.043-0.114-0.087-0.229-0.129-0.344c-0.14-0.383-0.272-0.768-0.398-1.155c-0.039-0.117-0.078-0.234-0.115-0.352  c-0.121-0.387-0.236-0.773-0.344-1.162c-0.034-0.125-0.068-0.25-0.101-0.376c-0.102-0.382-0.197-0.766-0.286-1.15  c-0.032-0.141-0.061-0.281-0.091-0.422c-0.082-0.371-0.157-0.744-0.226-1.118c-0.03-0.165-0.056-0.33-0.083-0.496  c-0.059-0.352-0.117-0.702-0.164-1.056c-0.029-0.208-0.05-0.416-0.075-0.624c-0.037-0.313-0.074-0.624-0.103-0.938  c-0.026-0.287-0.043-0.575-0.062-0.862c-0.016-0.237-0.036-0.475-0.047-0.712c-0.021-0.484-0.033-0.969-0.034-1.454  c0-0.043-0.002-0.087-0.003-0.13c0-2.124,0.199-4.245,0.586-6.34l28.42,0L20.177,67.777z M21.057,69.181l27.144-27.144l-31.98,0  c1.424-6.082,4.496-11.854,9.228-16.586c1.048-1.048,2.153-2.006,3.295-2.891l29.373,29.372l-0.544-35.794  c6.225,1.381,12.143,4.479,16.976,9.313c1.728,1.727,3.23,3.592,4.517,5.56L48.319,61.756h34.338  c-1.673,4.673-4.373,9.058-8.109,12.794c-2.339,2.339-4.935,4.264-7.693,5.794l-28.47-28.47v30.839  c-4.726-1.669-9.162-4.389-12.937-8.163C23.778,72.879,22.315,71.078,21.057,69.181z" style=""></path></svg>
