<svg xmlns="http://www.w3.org/2000/svg" xmlns:xlink="http://www.w3.org/1999/xlink" version="1.1" x="0px" y="0px" viewBox="0 0 100 100" enable-background="new 0 0 100 100" xml:space="preserve" style="max-width:100%" height="100%"><path fill="currentColor" d="M82.817,25.174h-46.15v-0.406c0-2.492-2.028-4.52-4.52-4.52c-2.492,0-4.52,2.028-4.52,4.52v0.406h-0.848  v-0.406c0-2.492-2.028-4.52-4.52-4.52c-2.492,0-4.52,2.028-4.52,4.52v0.406h-0.367c-4.522,0-8.203,3.679-8.203,8.201v37.282  c0,4.522,3.681,8.201,8.203,8.201h65.446c4.522,0,8.203-3.679,8.203-8.201V33.375C91.019,28.852,87.339,25.174,82.817,25.174z   M19.84,24.767c0-1.334,1.084-2.418,2.418-2.418c1.334,0,2.418,1.084,2.418,2.418v0.406H19.84V24.767z M88.917,70.657  c0,3.362-2.736,6.099-6.101,6.099H17.371c-3.365,0-6.101-2.736-6.101-6.099V51.543h19.336c-0.041,0.532-0.081,1.063-0.081,1.605  c0,11.397,9.272,20.669,20.669,20.669s20.669-9.272,20.669-20.669c0-0.542-0.04-1.074-0.081-1.605h17.136V70.657z M32.627,53.149  c0-10.237,8.33-18.567,18.567-18.567s18.567,8.33,18.567,18.567c0,10.237-8.33,18.567-18.567,18.567S32.627,63.386,32.627,53.149z   M88.917,49.442H71.512C69.758,39.81,61.324,32.48,51.194,32.48S32.63,39.81,30.876,49.442H11.27V33.375  c0-3.362,2.736-6.099,6.101-6.099h10.889c0.128,0.056,0.269,0.088,0.418,0.088c0.149,0,0.29-0.033,0.418-0.088h53.722  c3.364,0,6.101,2.736,6.101,6.099V49.442z M51.194,68.054c8.219,0,14.905-6.686,14.905-14.905c0-8.219-6.686-14.905-14.905-14.905  S36.289,44.93,36.289,53.149C36.289,61.368,42.975,68.054,51.194,68.054z M51.194,40.346c7.059,0,12.803,5.744,12.803,12.803  c0,7.059-5.744,12.803-12.803,12.803s-12.803-5.744-12.803-12.803C38.391,46.089,44.134,40.346,51.194,40.346z M81.597,32.276  h-5.949c-2.492,0-4.52,2.028-4.52,4.52s2.028,4.52,4.52,4.52h5.949c2.492,0,4.52-2.028,4.52-4.52S84.089,32.276,81.597,32.276z   M81.597,39.215h-5.949c-1.334,0-2.418-1.084-2.418-2.418c0-1.334,1.084-2.418,2.418-2.418h5.949c1.334,0,2.418,1.084,2.418,2.418  C84.015,38.131,82.932,39.215,81.597,39.215z M27.119,35.745h-9.722c-0.581,0-1.051,0.47-1.051,1.051  c0,0.581,0.47,1.051,1.051,1.051h9.722c0.581,0,1.051-0.47,1.051-1.051C28.17,36.216,27.7,35.745,27.119,35.745z" style=""></path></svg>

