<svg xmlns="http://www.w3.org/2000/svg" xmlns:xlink="http://www.w3.org/1999/xlink" version="1.1" x="0px" y="0px" viewBox="0 0 100 100" style="enable-background:new 0 0 100 100;max-width:100%" xml:space="preserve" height="100%"><path d="M26.40625,71.7514648h0.9351196l0.9535522,9.6523438c0.050293,0.5117188,0.480957,0.9018555,0.9951172,0.9018555h1.3894653  l0.9235229,6.7431641c0.0678711,0.4951172,0.4907227,0.8642578,0.9907227,0.8642578h33.3789062  c0.5,0,0.9228516-0.3691406,0.9907227-0.8642578l0.9235229-6.7431641h1.3889771  c0.5141602,0,0.9448242-0.3901367,0.9951172-0.9018555l0.9535522-9.6523438h0.9351196c0.5522461,0,1-0.4477539,1-1V28.1938477  h0.4360352c0.4824219,0,0.8959961-0.3442383,0.9833984-0.8188477l3-16.2807617  c0.0537109-0.2919922-0.0249023-0.5927734-0.2148438-0.8208008c-0.1899414-0.2285156-0.4716797-0.3603516-0.7685547-0.3603516  h-5.6835938c-2.0473633,0-3.8510742,1.2324219-4.5961914,3.1396484c0,0,0,0,0,0.0004883l-1.7744141,4.5473633h-4.0087891  l-1.7744141-4.5478516c-0.7451172-1.9072266-2.5488281-3.1396484-4.5961914-3.1396484h-9.6875  c-2.0473633,0-3.8510742,1.2324219-4.5961914,3.1401367l-1.7744141,4.5473633h-4.0087891l-1.7744141-4.5478516  c-0.7451172-1.9072266-2.5488281-3.1396484-4.5961914-3.1396484h-5.7539062c-0.296875,0-0.5786133,0.1318359-0.7685547,0.3603516  c-0.1899414,0.2280273-0.2685547,0.5288086-0.2148438,0.8208008l3,16.2807617  c0.0874023,0.4746094,0.5009766,0.8188477,0.9833984,0.8188477H25.40625v42.5576172  C25.40625,71.3037109,25.8540039,71.7514648,26.40625,71.7514648z M71.159668,53.0620117H27.40625V38.1518555h43.753418V53.0620117z   M27.40625,69.7514648V55.0620117h43.753418v14.6894531H27.40625z M65.1000977,87.9130859H33.4663086l-0.7681274-5.6074219  h33.1700439L65.1000977,87.9130859z M68.3696289,80.3056641H30.1962891l-0.8452759-8.5541992h39.8638916L68.3696289,80.3056641z   M71.159668,36.1518555H27.40625v-7.9580078h43.753418V36.1518555z M23.171875,11.9130859h4.5527344  c1.2172852,0,2.2900391,0.7329102,2.7329102,1.8671875l2.0229492,5.1835938  C32.6303711,19.3481445,33,19.6005859,33.4121094,19.6005859h5.375c0.4121094,0,0.7817383-0.2524414,0.9316406-0.6367188  l2.0229492-5.1835938c0.4428711-1.1342773,1.515625-1.8671875,2.7329102-1.8671875h9.6875  c1.2172852,0,2.2900391,0.7329102,2.7329102,1.8671875l2.0229492,5.1835938  c0.1499023,0.3842773,0.5195312,0.6367188,0.9316406,0.6367188h5.375c0.4121094,0,0.7817383-0.2524414,0.9316406-0.6367188  l2.0229492-5.1835938c0.4428711-1.1342773,1.515625-1.8671875,2.7329102-1.8671875h4.4824219l-2.6313477,14.2807617H25.8032227  L23.171875,11.9130859z" style="" fill="currentColor"></path><path d="M31.4101562,58.3354492c-0.5522461,0-1,0.4477539-1,1v6.574707c0,0.5522461,0.4477539,1,1,1s1-0.4477539,1-1v-6.574707  C32.4101562,58.7832031,31.9624023,58.3354492,31.4101562,58.3354492z" style="" fill="currentColor"></path><path d="M36.5166016,58.3354492c-0.5522461,0-1,0.4477539-1,1v6.574707c0,0.5522461,0.4477539,1,1,1s1-0.4477539,1-1v-6.574707  C37.5166016,58.7832031,37.0688477,58.3354492,36.5166016,58.3354492z" style="" fill="currentColor"></path><path d="M41.6230469,58.3354492c-0.5522461,0-1,0.4477539-1,1v6.574707c0,0.5522461,0.4477539,1,1,1s1-0.4477539,1-1v-6.574707  C42.6230469,58.7832031,42.175293,58.3354492,41.6230469,58.3354492z" style="" fill="currentColor"></path><path d="M46.7299805,58.3354492c-0.5522461,0-1,0.4477539-1,1v6.574707c0,0.5522461,0.4477539,1,1,1s1-0.4477539,1-1v-6.574707  C47.7299805,58.7832031,47.2822266,58.3354492,46.7299805,58.3354492z" style="" fill="currentColor"></path><path d="M51.8359375,58.3354492c-0.5522461,0-1,0.4477539-1,1v6.574707c0,0.5522461,0.4477539,1,1,1s1-0.4477539,1-1v-6.574707  C52.8359375,58.7832031,52.3881836,58.3354492,51.8359375,58.3354492z" style="" fill="currentColor"></path><path d="M56.9428711,58.3354492c-0.5522461,0-1,0.4477539-1,1v6.574707c0,0.5522461,0.4477539,1,1,1s1-0.4477539,1-1v-6.574707  C57.9428711,58.7832031,57.4951172,58.3354492,56.9428711,58.3354492z" style="" fill="currentColor"></path><path d="M62.0493164,58.3354492c-0.5522461,0-1,0.4477539-1,1v6.574707c0,0.5522461,0.4477539,1,1,1s1-0.4477539,1-1v-6.574707  C63.0493164,58.7832031,62.6015625,58.3354492,62.0493164,58.3354492z" style="" fill="currentColor"></path><path d="M67.1557617,58.3354492c-0.5522461,0-1,0.4477539-1,1v6.574707c0,0.5522461,0.4477539,1,1,1s1-0.4477539,1-1v-6.574707  C68.1557617,58.7832031,67.7080078,58.3354492,67.1557617,58.3354492z" style="" fill="currentColor"></path><path d="M31.4101562,50c0.5522461,0,1-0.4477539,1-1v-6.574707c0-0.5522461-0.4477539-1-1-1s-1,0.4477539-1,1V49  C30.4101562,49.5522461,30.8579102,50,31.4101562,50z" style="" fill="currentColor"></path><path d="M36.5166016,50c0.5522461,0,1-0.4477539,1-1v-6.574707c0-0.5522461-0.4477539-1-1-1s-1,0.4477539-1,1V49  C35.5166016,49.5522461,35.9643555,50,36.5166016,50z" style="" fill="currentColor"></path><path d="M41.6230469,50c0.5522461,0,1-0.4477539,1-1v-6.574707c0-0.5522461-0.4477539-1-1-1s-1,0.4477539-1,1V49  C40.6230469,49.5522461,41.0708008,50,41.6230469,50z" style="" fill="currentColor"></path><path d="M46.7299805,50c0.5522461,0,1-0.4477539,1-1v-6.574707c0-0.5522461-0.4477539-1-1-1s-1,0.4477539-1,1V49  C45.7299805,49.5522461,46.1777344,50,46.7299805,50z" style="" fill="currentColor"></path><path d="M51.8359375,50c0.5522461,0,1-0.4477539,1-1v-6.574707c0-0.5522461-0.4477539-1-1-1s-1,0.4477539-1,1V49  C50.8359375,49.5522461,51.2836914,50,51.8359375,50z" style="" fill="currentColor"></path><path d="M56.9428711,50c0.5522461,0,1-0.4477539,1-1v-6.574707c0-0.5522461-0.4477539-1-1-1s-1,0.4477539-1,1V49  C55.9428711,49.5522461,56.390625,50,56.9428711,50z" style="" fill="currentColor"></path><path d="M62.0493164,50c0.5522461,0,1-0.4477539,1-1v-6.574707c0-0.5522461-0.4477539-1-1-1s-1,0.4477539-1,1V49  C61.0493164,49.5522461,61.4970703,50,62.0493164,50z" style="" fill="currentColor"></path><path d="M67.1557617,50c0.5522461,0,1-0.4477539,1-1v-6.574707c0-0.5522461-0.4477539-1-1-1s-1,0.4477539-1,1V49  C66.1557617,49.5522461,66.6035156,50,67.1557617,50z" style="" fill="currentColor"></path></svg>

