<svg xmlns="http://www.w3.org/2000/svg" xmlns:xlink="http://www.w3.org/1999/xlink" version="1.1" x="0px" y="0px" viewBox="0 0 100 100" enable-background="new 0 0 100 100" xml:space="preserve" style="max-width:100%" height="50" width="50" ><g style="" fill="#C09A64"><g style="" fill="#C09A64"><path d="M60.232,32.705c-14.001,0-25.395,11.392-25.395,25.395c0,14.002,11.392,25.396,25.395,25.396    c14.002,0,25.395-11.394,25.395-25.396C85.627,44.097,74.234,32.705,60.232,32.705z M60.232,81.494    c-12.899,0-23.395-10.495-23.395-23.395c0-12.901,10.495-23.396,23.395-23.396S83.627,45.198,83.627,58.1    C83.627,70.999,73.133,81.494,60.232,81.494z" style="" fill="#C09A64"></path><path d="M60.232,37.094c-11.583,0-21.005,9.423-21.005,21.005c0,11.582,9.423,21.006,21.005,21.006    c11.584,0,21.007-9.424,21.007-21.006C81.239,46.517,71.816,37.094,60.232,37.094z M60.232,77.105    c-10.479,0-19.005-8.526-19.005-19.006c0-10.48,8.526-19.006,19.005-19.006S79.239,47.618,79.239,58.1    C79.239,68.579,70.713,77.105,60.232,77.105z" style="" fill="#C09A64"></path><path d="M99,37.094h-3.316c-0.259-2.271-1.403-4.479-3.334-6.462l0.258-2.67c0.047-0.487-0.266-0.937-0.736-1.063l-6.423-1.717    c-0.093-0.063-0.188-0.12-0.302-0.15c-0.114-0.03-0.229-0.03-0.34-0.021l-3.41-0.911v-0.001h-0.002l-3.49-0.934    c-0.481-0.13-0.969,0.108-1.17,0.553l-0.416,0.92l-1.774-4.084c-0.926-2.133-3.044-3.92-5.356-4.729    c0-0.01,0.006-0.019,0.006-0.028c0-2.641-3.016-3.979-8.959-3.979c-5.937,0-8.949,1.335-8.959,3.967    c-2.316,0.798-4.444,2.57-5.387,4.692l-2.501,5.627l-17.572,0.854c-0.854,0.02-1.923,0.078-3.039,0.166    c-1.253-0.77-3.271-1.133-5.199-1.133c-3.103,0-6.442,0.939-6.442,3.001c0,0.092,0.014,0.179,0.027,0.268L7.588,30.65l0,0    l-1.465,0.571c-0.221,0.087-0.404,0.248-0.517,0.457c-0.693,1.286-1.277,2.629-1.771,4.003l-2.387-1.193    c-0.495-0.248-1.095-0.046-1.342,0.447c-0.247,0.494-0.047,1.095,0.447,1.342l2.662,1.331c-0.756,2.652-1.16,5.41-1.16,8.187    v38.893c0,1.928,1.568,3.496,3.495,3.496h18.328c0.127,0,0.254-0.023,0.373-0.072l1.535-0.615h61.854    c2.756,0,5.461-1.292,7.82-3.736c0.18-0.188,0.28-0.438,0.28-0.695V39.095H99c0.553,0,1-0.448,1-1    C100,37.541,99.553,37.094,99,37.094z M60.232,85.495c-15.105,0-27.396-12.29-27.396-27.396c0-15.106,12.29-27.396,27.396-27.396    S87.629,42.992,87.629,58.1C87.629,73.205,75.339,85.495,60.232,85.495z M81.22,78.654v1.078c0,1.443-1.62,2.664-3.538,2.664    h-0.925C78.366,81.299,79.859,80.043,81.22,78.654z M39.246,78.654c1.36,1.388,2.854,2.645,4.464,3.742h-0.925    c-1.918,0-3.539-1.221-3.539-2.664V78.654z M32.153,47.43c0-0.826,0.606-1.51,1.396-1.64c-0.397,0.856-0.753,1.735-1.068,2.635    C32.273,48.145,32.153,47.799,32.153,47.43z M45.843,25.499c2.881,1.644,10.599,1.854,14.335,1.854    c3.737,0,11.453-0.211,14.336-1.854l4.262,9.811c-5.063-4.127-11.517-6.606-18.541-6.606c-7.18,0-13.763,2.591-18.874,6.882    L45.843,25.499z M47.425,21.939h25.541l0.748,1.723c-0.012,0.031-0.032,0.058-0.042,0.09c-0.811,0.59-5.349,1.602-13.494,1.602    c-8.145,0-12.684-1.012-13.494-1.603c-0.007-0.025-0.024-0.045-0.033-0.069L47.425,21.939z M83.646,26.771l-0.285,1.061    l-1.799-0.481l0.282-1.061L83.646,26.771z M87.377,27.769l-0.283,1.061l-1.801-0.481l0.284-1.061L87.377,27.769z M77.98,28.462    l2.098,0.562l0,0h0.001l10.718,2.866c1.651,1.649,2.605,3.396,2.865,5.204H81.73L77.98,28.462z M90.428,29.721l-1.402-0.375    l0.283-1.061l1.227,0.327L90.428,29.721z M78.206,25.316l1.707,0.456l-0.283,1.061l-1.884-0.504L78.206,25.316z M60.232,13.816    c3.734,0,6.299,0.607,6.847,1.577c-0.147-0.01-0.296-0.038-0.442-0.039l-12.803-0.03c-0.005,0-0.01,0-0.016,0    c-0.137,0-0.276,0.027-0.416,0.036C53.991,14.409,56.542,13.816,60.232,13.816z M53.818,17.324c0.004,0,0.008,0,0.012,0    l12.803,0.03c1.815,0.005,3.876,1.097,5.159,2.585H48.6C49.89,18.433,51.982,17.324,53.818,17.324z M25.884,28.956l2.641-0.129    c-0.72,2.01-5.036,4.029-11.015,4.029c-2.622,0-5.141-0.416-7.144-1.143l1.647-0.643c0.144-0.056,0.305-0.105,0.458-0.159    c1.258,0.731,3.222,1.079,5.103,1.079c3.077,0,6.383-0.925,6.438-2.95C24.69,28.999,25.331,28.969,25.884,28.956z M17.575,27.99    c2.308,0,3.74,0.53,4.253,0.892c0.001,0.002,0.003,0.003,0.005,0.004c0.051,0.037,0.103,0.073,0.135,0.104    c-0.352,0.353-1.844,1-4.393,1c-2.549,0-4.041-0.647-4.393-1C13.534,28.639,15.026,27.99,17.575,27.99z M26.593,85.495V52.13    c0-3.903,2.297-7.472,5.852-9.09c0.502-0.229,0.725-0.822,0.496-1.325c-0.229-0.503-0.824-0.725-1.325-0.495    c-4.266,1.942-7.022,6.225-7.022,10.91v33.688l-0.908,0.365H5.55c-0.824,0-1.495-0.672-1.495-1.496V45.795    c0-4.474,1.085-8.906,3.141-12.845l0.568-0.222c2.46,1.352,5.965,2.128,9.747,2.128c7.04,0,12.607-2.656,13.086-6.13l11.879-0.577    l-5.12,11.521c-1.051,1.302-1.993,2.694-2.813,4.164c-0.236-0.047-0.478-0.071-0.723-0.071c-2.022,0-3.667,1.645-3.667,3.667    c0,1.275,0.653,2.414,1.685,3.076c-0.649,2.424-1,4.969-1,7.594c0,6.91,2.402,13.266,6.408,18.289v3.344    c0,2.572,2.485,4.666,5.539,4.666h4.336c0.805,0.402,1.63,0.769,2.475,1.098L26.593,85.495L26.593,85.495z M93.741,82.652    c-1.923,1.887-3.974,2.843-6.103,2.843H70.87c0.845-0.329,1.671-0.694,2.476-1.099h4.336c3.055,0,5.538-2.092,5.538-4.664v-3.342    c4.007-5.025,6.409-11.381,6.409-18.291c0-7.242-2.638-13.877-6.997-19.006h11.109V82.652z" style="" fill="#C09A64"></path><path d="M24.287,36.352H9.831c-0.489,0-0.906,0.354-0.986,0.835l-0.516,3.098c-0.048,0.29,0.033,0.587,0.223,0.812    c0.19,0.224,0.469,0.354,0.763,0.354h15.488c0.294,0,0.573-0.13,0.763-0.354c0.19-0.225,0.271-0.521,0.223-0.812l-0.516-3.098    C25.193,36.705,24.776,36.352,24.287,36.352z M18.059,38.352h1.614v1.098h-1.614V38.352z M16.059,39.449h-1.614v-1.098h1.614    V39.449z M10.678,38.352h1.767v1.098h-1.95L10.678,38.352z M21.673,39.449v-1.098h1.767l0.183,1.098H21.673z" style="" fill="#C09A64"></path><path d="M38.56,34.608c0-2.022-1.645-3.667-3.667-3.667s-3.667,1.645-3.667,3.667s1.645,3.668,3.667,3.668    S38.56,36.631,38.56,34.608z M33.225,34.608c0-0.919,0.748-1.667,1.667-1.667s1.667,0.748,1.667,1.667    c0,0.92-0.748,1.668-1.667,1.668S33.225,35.528,33.225,34.608z" style="" fill="#C09A64"></path><path d="M60.232,47.734c-5.715,0-10.364,4.649-10.364,10.366c0,5.715,4.649,10.363,10.364,10.363    c5.716,0,10.365-4.648,10.365-10.363S65.948,47.734,60.232,47.734z M60.232,66.464c-4.611,0-8.364-3.752-8.364-8.364    c0-4.611,3.753-8.365,8.364-8.365c4.612,0,8.365,3.753,8.365,8.365C68.598,62.712,64.846,66.464,60.232,66.464z" style="" fill="#C09A64"></path></g></g></svg>