<svg xmlns:xlink="http://www.w3.org/1999/xlink" xmlns="http://www.w3.org/2000/svg" data-name="Layer 2" viewBox="0 0 128 128" x="0px" y="0px" style="max-width:100%" height="50" width="50" ><title style="" fill="currentColor">Woman, fashion, occupation, career, actor, avatar, model</title><path d="M43.33,51.96a4.067,4.067,0,0,0,1.542-.154c.239-.078.481-.137.719-.238l.36-.139.18-.072a2.21,2.21,0,0,1,.329-.1,2.444,2.444,0,0,1,1.511.141,2.415,2.415,0,0,1,.656.418c.117.11.138.123.191.167l.141.118a5.694,5.694,0,0,0,1.261.789,9.145,9.145,0,0,0,3.031.767,10.3,10.3,0,0,0,3.134-.187l.056-.013a1,1,0,0,1,.607,1.9,9,9,0,0,1-3.962.59,9.462,9.462,0,0,1-3.876-1.036,6.738,6.738,0,0,1-1.7-1.217l-.324-.328a.347.347,0,0,0-.086-.081.387.387,0,0,0-.244-.063c-.926.279-2.925.433-3.813-.824a.28.28,0,0,1,.259-.439Z" style="" fill="#C09A64"></path><path d="M43.267,44.885a12.582,12.582,0,0,1,6.522-2.219,21.4,21.4,0,0,1,3.453,0c.577.041,1.153.116,1.733.215a8.8,8.8,0,0,1,1.819.485,1,1,0,0,1-.76,1.852l-.056-.025-.039-.019a11.608,11.608,0,0,0-2.9-.789,19.989,19.989,0,0,0-3.179-.257,11.452,11.452,0,0,0-6.051,1.511l-.014.009a.463.463,0,0,1-.525-.762Z" style="" fill="#C09A64"></path><ellipse cx="51.424" cy="55.57" rx="2.611" ry="1.728" style="" fill="#C09A64"></ellipse><path d="M38.06,81.939a1,1,0,0,1-1-1V70.433a1,1,0,0,1,2,0V80.939A1,1,0,0,1,38.06,81.939Z" style="" fill="#C09A64"></path><path d="M89.027,70.835A2.839,2.839,0,1,1,91.866,68,2.842,2.842,0,0,1,89.027,70.835Zm0-3.678a.839.839,0,1,0,.839.84A.84.84,0,0,0,89.027,67.157Z" style="" fill="#C09A64"></path><path d="M89.027,81.342a1,1,0,0,1-1-1V69.835a1,1,0,0,1,2,0V80.342A1,1,0,0,1,89.027,81.342Z" style="" fill="#C09A64"></path><path d="M70.788,67.516a1,1,0,0,0-1.4.186,1.1,1.1,0,0,1-1.1.272l-1.849-.81c-.033-.014-.065-.026-.1-.037a2.989,2.989,0,0,0-2.347.228,3,3,0,0,0-2.351-.228c-.032.011-.065.023-.1.037l-1.851.81a1.111,1.111,0,0,1-1.1-.272A1,1,0,1,0,57,68.918a3,3,0,0,0,2.385,1.1,2.785,2.785,0,0,0,1.11-.216l1.8-.785a1.027,1.027,0,0,1,1,.276l0,0,0,0a.969.969,0,0,0,.165.107,1.01,1.01,0,0,0,.165.107,1.13,1.13,0,0,0,.143.028,1.05,1.05,0,0,0,.233.043,1.076,1.076,0,0,0,.158-.031,1.007,1.007,0,0,0,.217-.044,1.022,1.022,0,0,0,.166-.111.986.986,0,0,0,.16-.106l0,0,0,0a1.011,1.011,0,0,1,.982-.269l1.793.785a2.785,2.785,0,0,0,1.11.216,3,3,0,0,0,2.385-1.1A1,1,0,0,0,70.788,67.516Z" style="" fill="#C09A64"></path><path d="M65.15,73.18H62.82a1,1,0,1,1,0-2h2.33a1,1,0,0,1,0,2Z" style="" fill="#C09A64"></path><path d="M109.357,85.229c-8.54-12.593-11.978-19.59-11.16-30.323.6-7.884.316-18.266-6.836-29.22,3.78-1.611,6.293-2.951,7.445-3.98,2.276-2.035,2.373-3.717,2.052-4.77-.454-1.5-2.017-2.538-4.287-2.856a48.521,48.521,0,0,0-11.641.038,1.439,1.439,0,0,1-1.368-.634C81.271,10.057,72.391-.848,54.347,2.709,32.962,6.919,30.565,22.973,30.341,27.8a1.485,1.485,0,0,1-.912,1.311C20.347,32.974,16.3,36.8,17.412,40.468c.394,1.309,1.524,2.912,4.674,3.12q.633.041,1.37.04a44.772,44.772,0,0,0,4.826-.314,70.151,70.151,0,0,0-.369,15.446c.112,1.594.3,3.34.575,5.327.7,5.444-2.87,10.958-6.648,16.8-4.167,6.439-8.477,13.1-6.718,19.929,1.252,4.866,5.449,9.209,12.8,13.264-.168,2.805,2.235,4.548,4.674,5.889a33.382,33.382,0,0,0,4.78,2.058C41.6,123.509,50.677,126,63.986,126h.007c13.3,0,22.374-2.491,26.6-3.977a33.426,33.426,0,0,0,4.78-2.057c2.5-1.375,4.933-3.163,4.659-6.033,2.391-.914,10.481-4.49,13.01-11.883C114.761,97.025,113.521,91.366,109.357,85.229ZM22.216,41.592c-2.174-.143-2.69-1.039-2.889-1.7-.732-2.428,3.235-5.686,10.886-8.942a3.512,3.512,0,0,0,2.126-3.063C32.547,23.434,34.775,8.6,54.733,4.671a33.575,33.575,0,0,1,6.5-.662A24.465,24.465,0,0,1,81.9,14.6,3.471,3.471,0,0,0,85.189,16.1a46.221,46.221,0,0,1,11.1-.042c1.425.2,2.442.758,2.654,1.457s-.327,1.674-1.471,2.7c-.753.672-2.748,1.928-7.986,4.092h0c-6.5,2.691-16.018,5.941-26.11,8.915-7.593,2.239-15.023,4.187-21.485,5.633-4.8,1.076-9.031,1.857-12.56,2.324A39.436,39.436,0,0,1,22.216,41.592Zm65.923,60.759c1.037,5.35,1.766,14.211,1.231,17.976a79.028,79.028,0,0,1-23.742,3.654,50.055,50.055,0,0,1,6.246-6.225c5.128-4.635,11.509-10.4,15.071-17.272.166-.316.326-.637.478-.959a.379.379,0,0,1,.067.126A21.592,21.592,0,0,1,88.139,102.351ZM38.6,120.328c-.51-3.72.2-12.681,1.231-17.979a21.259,21.259,0,0,1,.657-2.7.452.452,0,0,1,.061-.121c.151.32.309.637.472.948,3.568,6.876,9.954,12.647,15.085,17.285a50.159,50.159,0,0,1,6.242,6.216A79.107,79.107,0,0,1,38.6,120.328Zm31.932-4.055a70.276,70.276,0,0,0-5.683,5.49A44.781,44.781,0,0,1,65.007,115a1,1,0,0,0-1.975-.321,44.209,44.209,0,0,0-.193,6.762c-1.335-1.484-3.185-3.166-5.391-5.16-4.8-4.341-10.726-9.7-14.206-15.913,1.166-.737,2.388-1.463,3.682-2.157.816-.44,1.694-.838,2.544-1.225,3.945-1.793,8.382-3.819,9.209-11.132a15.51,15.51,0,0,0,10.5.042c.835,7.277,5.29,9.286,9.25,11.063.918.412,1.785.8,2.624,1.252,1.3.7,2.518,1.422,3.681,2.156C81.252,106.573,75.333,111.933,70.533,116.273ZM69.7,83.606A16.188,16.188,0,0,1,63.99,84.79a16.318,16.318,0,0,1-5.839-1.232,39,39,0,0,1-7.191-3.853,19.66,19.66,0,0,1-9.213-13.556,50.513,50.513,0,0,1-.939-7.412c-.117-1.862-.178-3.882-.188-6.167,0-.289,0-.568.01-.862a29.456,29.456,0,0,1,2.2-11.017c6.087-1.376,12.988-3.182,20.065-5.248.234,1.292.387,2.764.545,4.311.725,7.112,1.716,16.853,12.141,24.144a20.83,20.83,0,0,0,10.37,3.379A19.607,19.607,0,0,1,77.011,79.7,38.679,38.679,0,0,1,69.7,83.606ZM38.687,56.21a4.055,4.055,0,0,0-2.521-.241,1,1,0,0,0,.389,1.962,1.863,1.863,0,0,1,2.273,1.145,55.408,55.408,0,0,0,.766,6.458,5.869,5.869,0,0,1-3.411-.952,7.52,7.52,0,0,1-3.4-4.667,10.573,10.573,0,0,1-.181-1.5c-.077-1.476.062-5,2.97-5.869a8.049,8.049,0,0,1,3.052-.043v.067C38.626,53.865,38.649,55.066,38.687,56.21Zm-21.628,44.1c-1.54-5.983,2.345-11.987,6.46-18.343C27.326,76.087,31.264,70,30.471,63.823c-.27-1.952-.453-3.655-.564-5.214a67.812,67.812,0,0,1,.433-15.553c2.959-.415,6.353-1.032,10.136-1.844a31.776,31.776,0,0,0-1.8,9.28,9.6,9.6,0,0,0-3.674.14c-2.965.885-4.611,3.834-4.4,7.89a12.735,12.735,0,0,0,.218,1.785,9.588,9.588,0,0,0,4.308,5.974,7.97,7.97,0,0,0,4.192,1.267,6.909,6.909,0,0,0,.691-.044,21.563,21.563,0,0,0,9.851,13.872,42.522,42.522,0,0,0,6.874,3.751c-.553,6.591-4.053,8.2-8.094,10.039-.88.4-1.789.813-2.663,1.283-1.28.686-2.492,1.405-3.654,2.135-.049-.105-.1-.207-.151-.312a1.555,1.555,0,0,0-1.562-.827,2.252,2.252,0,0,0-2.017,1.57,20.922,20.922,0,0,0-.651,2.587,36.339,36.339,0,0,0-8.9,9.337,8.94,8.94,0,0,0-.605,1.136C21.872,108.378,18.142,104.524,17.059,100.313Zm12.92,13.422A5.486,5.486,0,0,1,30.737,112a32.5,32.5,0,0,1,6.689-7.421,79.128,79.128,0,0,0-.914,14.986,26.279,26.279,0,0,1-2.95-1.351C30.64,116.606,29.635,115.351,29.979,113.735Zm64.428,4.479a26.075,26.075,0,0,1-2.942,1.348,79.353,79.353,0,0,0-.925-14.986A32.448,32.448,0,0,1,97.234,112a5.5,5.5,0,0,1,.7,1.532C98.415,115.268,97.458,116.535,94.407,118.214Zm16.745-16.821c-2.169,6.357-9.336,9.67-11.655,10.6a8.776,8.776,0,0,0-.569-1.048,36.338,36.338,0,0,0-8.9-9.336,22.366,22.366,0,0,0-.642-2.586,2.275,2.275,0,0,0-2.038-1.574,1.552,1.552,0,0,0-1.553.829c-.047.105-.1.207-.151.311-1.159-.728-2.37-1.447-3.653-2.134-.9-.485-1.842-.908-2.751-1.316-4.054-1.819-7.565-3.414-8.126-9.955a42.193,42.193,0,0,0,6.993-3.8c5.4-3.551,8.309-7.707,9.936-14.209,3-.481,6.675-2.464,6.955-4.285a1.538,1.538,0,0,0-1.041-1.691c-3.692-1.463-4.558-2.656-4.629-6.378a21.365,21.365,0,0,1,.162-2.218c.432-4.219,1.237-12.072-4.3-21.039a1,1,0,1,0-1.7,1.05C88.67,41,87.939,48.128,87.5,52.39a21.992,21.992,0,0,0-.173,2.46c.085,4.374,1.372,6.31,5.456,8.023a10.4,10.4,0,0,1-5.623,2.39,18.317,18.317,0,0,1-10.43-3c-9.675-6.767-10.576-15.607-11.3-22.71-.17-1.669-.338-3.253-.61-4.674,9.443-2.807,18.324-5.836,24.66-8.41C96.469,36.96,96.818,46.642,96.2,54.754c-.858,11.261,2.854,18.849,11.5,31.6C111.491,91.937,112.652,97,111.152,101.393Z" style="" fill="#C09A64"></path><path d="M63.99,64.12c-.026,0-2.67-.043-2.67-1.59a1,1,0,0,1,1.822-.571,3.129,3.129,0,0,0,.848.161,3.042,3.042,0,0,0,.839-.161,1,1,0,0,1,1.821.571C66.65,64.077,64.017,64.12,63.99,64.12Z" style="" fill="#C09A64"></path><path d="M38.06,71.433a2.84,2.84,0,1,1,2.839-2.84A2.842,2.842,0,0,1,38.06,71.433Zm0-3.679a.84.84,0,1,0,.839.839A.84.84,0,0,0,38.06,67.754Z" style="" fill="#C09A64"></path></svg>