<svg xmlns="http://www.w3.org/2000/svg" xmlns:xlink="http://www.w3.org/1999/xlink" version="1.1" x="0px" y="0px" viewBox="0 0 512 512" style="enable-background:new 0 0 512 512;max-width:100%" xml:space="preserve" height="100%"><title style="" fill="currentColor">photographer</title><path d="M301.1,310.7h-4.8v-7.6c0-5.7-4.7-10.4-10.4-10.4h-16c-5.7,0-10.4,4.7-10.4,10.4v7.6h-17.1l-7.2-15.3  c-4.4-9.2-13.6-15-23.8-15.1h-51.9c-10.2,0-19.4,5.9-23.8,15.1l-7.2,15.3h-15v-7.6c0-5.7-4.7-10.4-10.4-10.4h-16  c-5.7,0-10.4,4.7-10.4,10.4v7.6h-6.8c-13.3,0-24.1,10.8-24.1,24.1v113.7c0,13.3,10.8,24.1,24.1,24.1h231.3  c13.3,0,24.1-10.8,24.1-24.1V334.9C325.3,321.6,314.5,310.8,301.1,310.7z M267.3,303.2c0-1.5,1.2-2.6,2.6-2.6l0,0h16  c1.5,0,2.6,1.2,2.6,2.6l0,0v7.6h-21.3L267.3,303.2z M84.4,303.2c0-1.5,1.2-2.6,2.6-2.6l0,0h16c1.4,0,2.6,1.2,2.6,2.6v7.6H84.4  L84.4,303.2z M53.5,357.9h90c-16,19.7-16,48,0,67.7h-90V357.9z M154.1,357.9c1.5-1.4,3.1-2.7,4.9-3.9c2.1-1.5,4.3-2.8,6.6-3.9  c12.6-6.1,27.4-6.1,40,0c2.3,1.1,4.5,2.4,6.6,3.9c20.9,14.7,25.9,43.5,11.2,64.4c-14.7,20.9-43.5,25.9-64.4,11.2  c-20.9-14.7-25.9-43.5-11.2-64.4C149.7,362.6,151.8,360.1,154.1,357.9L154.1,357.9z M317.5,448.5c0,9-7.3,16.4-16.4,16.4H69.9  c-9,0-16.3-7.3-16.4-16.4v-15.2h97.7c19.9,16.4,48.7,16.4,68.6,0h97.7V448.5z M317.5,425.5h-90c16-19.7,16-48,0-67.7h90V425.5z   M317.5,350.1h-97.7c-19.9-16.4-48.7-16.4-68.6,0H53.5v-15.2c0-9,7.3-16.4,16.4-16.4H131c1.5,0,2.9-0.9,3.5-2.2l8.3-17.5  c3.1-6.5,9.6-10.6,16.8-10.6h51.9c7.2,0,13.7,4.1,16.8,10.6l8.3,17.5c0.6,1.4,2,2.2,3.5,2.2h61.1c9,0,16.4,7.3,16.4,16.4V350.1z" style="" fill="currentColor"></path><path d="M185.5,425.4c18.6,0,33.7-15.1,33.7-33.7c0-18.6-15.1-33.7-33.7-33.7s-33.7,15.1-33.7,33.7c0,0,0,0,0,0  C151.9,410.3,166.9,425.4,185.5,425.4z M185.5,365.8c14.3,0,25.9,11.6,25.9,25.9s-11.6,25.9-25.9,25.9c-14.3,0-25.9-11.6-25.9-25.9  l0,0C159.6,377.4,171.2,365.8,185.5,365.8z" style="" fill="currentColor"></path><path d="M202.2,302.8h-33.4c-2.1-0.1-4,1.5-4.1,3.7c-0.1,2.1,1.5,4,3.7,4.1c0.1,0,0.3,0,0.4,0h33.4c2.1,0.1,4-1.5,4.1-3.7  c0.1-2.1-1.5-4-3.7-4.1C202.5,302.8,202.4,302.8,202.2,302.8L202.2,302.8z" style="" fill="currentColor"></path><path d="M321.4,134L321.4,134c2.1,0,3.9-1.7,3.9-3.9V40.9c0-2.1-1.7-3.9-3.9-3.9c0,0,0,0,0,0H49.7c-2.1,0-3.9,1.7-3.9,3.9v183.8  c0,2.1,1.7,3.9,3.9,3.9h244.9c2.1,0,3.9-1.7,3.9-3.9v0l0,0c0-2.1-1.7-3.9-3.9-3.9l0,0h-241v-176h264v85.3  C317.5,132.2,319.2,134,321.4,134C321.4,134,321.4,134,321.4,134z" style="" fill="currentColor"></path><path d="M78.9,68.9c-2.1,0-3.9,1.7-3.9,3.9v120c0,2.1,1.7,3.9,3.9,3.9h213.3c2.1,0,3.9-1.7,3.9-3.9v0v-120c0-2.1-1.7-3.9-3.9-3.9  l0,0L78.9,68.9z M167.8,188.9h-85V179l40.6-31.1c5.4-4.2,12.9-4.5,18.7-0.7l37.4,24.4l3.5,2.3l3.5,2.3l19.6,12.8L167.8,188.9z   M288.3,188.9h-68l-26.8-17.5l43-29.3c4.1-2.8,9.6-2.9,13.8-0.1l38,24.9L288.3,188.9z M288.3,157.6l-33.8-22.1  c-6.8-4.5-15.7-4.4-22.4,0.2l-45.7,31.1l-40.1-26.2c-8.5-5.5-19.6-5.1-27.7,1.1l0,0l-35.9,27.5V76.7h205.5V157.6z" style="" fill="currentColor"></path><path d="M188.5,134c11.4,0,20.6-9.2,20.6-20.6s-9.2-20.6-20.6-20.6c-11.4,0-20.6,9.2-20.6,20.6c0,0,0,0,0,0  C167.9,124.8,177.1,134,188.5,134z M188.5,100.6c7.1,0,12.8,5.7,12.8,12.8c0,7.1-5.7,12.8-12.8,12.8s-12.8-5.7-12.8-12.8  C175.6,106.3,181.4,100.6,188.5,100.6C188.5,100.6,188.5,100.6,188.5,100.6L188.5,100.6z" style="" fill="currentColor"></path><path d="M458.5,146.8H337.4c-8.8,0-15.9,7.2-16,15.9v68.1c0,8.8,7.2,15.9,16,15.9h6.6V431c0,6.9,5.6,12.5,12.5,12.5h4.1  c14.9,0,28.8-7.6,36.9-20.1c6.6-10.3,18.1-16.6,30.3-16.6h11.5c6.9,0,12.5-5.6,12.5-12.5V246.9h6.6c8.8,0,16-7.1,16-15.9v-68.2  C474.5,154,467.3,146.8,458.5,146.8z M344,196.9v42.3h-6.6c-4.5,0-8.2-3.7-8.2-8.2v-68.1c0-4.5,3.7-8.2,8.2-8.2h6.6V196.9z   M444.1,239.1v155.1c0,2.6-2.1,4.7-4.7,4.8h-11.5c-14.9,0-28.9,7.6-36.9,20.1c-6.6,10.3-18.1,16.6-30.3,16.6h-4.1  c-2.6,0-4.7-2.1-4.7-4.7V200.7h92.4L444.1,239.1z M444.1,193h-92.3v-38.4h92.4L444.1,193z M466.7,231c0,4.5-3.7,8.2-8.2,8.2h-6.6  v-84.5h6.6c4.5,0,8.2,3.7,8.2,8.2V231z" style="" fill="currentColor"></path><path d="M365.7,221.6h9.3c2.1-0.1,3.8-1.9,3.7-4.1c-0.1-2-1.7-3.6-3.7-3.7h-9.3c-2.1-0.1-4,1.5-4.1,3.7c-0.1,2.1,1.5,4,3.7,4.1  C365.5,221.7,365.6,221.7,365.7,221.6L365.7,221.6z" style="" fill="currentColor"></path><path d="M421,221.6h9.3c2.1,0.1,4-1.5,4.1-3.7c0.1-2.1-1.5-4-3.7-4.1c-0.1,0-0.3,0-0.4,0H421c-2.1,0.1-3.8,1.9-3.7,4.1  C417.4,220,419,221.5,421,221.6z" style="" fill="currentColor"></path><path d="M365.7,248.3h9.3c2.1,0,3.9-1.8,3.9-3.9c0-2.1-1.7-3.9-3.9-3.9h-9.3c-2.1,0-3.9,1.7-3.9,3.9  C361.9,246.5,363.6,248.3,365.7,248.3L365.7,248.3z" style="" fill="currentColor"></path><path d="M421,248.3h9.3c2.1,0,3.9-1.7,3.9-3.9c0-2.1-1.7-3.9-3.9-3.9H421c-2.1,0-3.9,1.7-3.9,3.9C417.1,246.5,418.9,248.3,421,248.3  z" style="" fill="currentColor"></path><path d="M365.7,274.9h9.3c2.1,0,3.9-1.7,3.9-3.9c0-2.1-1.7-3.9-3.9-3.9h-9.3c-2.1,0-3.9,1.7-3.9,3.9  C361.8,273.2,363.6,274.9,365.7,274.9C365.7,274.9,365.7,274.9,365.7,274.9L365.7,274.9z" style="" fill="currentColor"></path><path d="M421,274.9h9.3c2.1,0,3.9-1.7,3.9-3.9c0-2.1-1.7-3.9-3.9-3.9H421c-2.1,0-3.9,1.7-3.9,3.9C417.1,273.2,418.9,274.9,421,274.9  z" style="" fill="currentColor"></path><path d="M365.7,301.6h9.3c2.1,0,3.9-1.7,3.9-3.9c0-2.1-1.7-3.9-3.9-3.9h-9.3c-2.1,0-3.9,1.7-3.9,3.9  C361.8,299.8,363.6,301.6,365.7,301.6L365.7,301.6z" style="" fill="currentColor"></path><path d="M421,301.6h9.3c2.1,0,3.9-1.7,3.9-3.9c0-2.1-1.7-3.9-3.9-3.9H421c-2.1,0-3.9,1.7-3.9,3.9C417.1,299.8,418.9,301.6,421,301.6  z" style="" fill="currentColor"></path><path d="M365.7,328.2h9.3c2.1-0.1,3.8-1.9,3.7-4.1c-0.1-2-1.7-3.6-3.7-3.7h-9.3c-2.1-0.1-4,1.5-4.1,3.7s1.5,4,3.7,4.1  C365.5,328.2,365.6,328.2,365.7,328.2L365.7,328.2z" style="" fill="currentColor"></path><path d="M421,328.2h9.3c2.1,0.1,4-1.5,4.1-3.7s-1.5-4-3.7-4.1c-0.1,0-0.3,0-0.4,0H421c-2.1,0.1-3.8,1.9-3.7,4.1  C417.4,326.5,419,328.1,421,328.2z" style="" fill="currentColor"></path><path d="M365.7,354.8h9.3c2.1-0.1,3.8-1.9,3.7-4.1c-0.1-2-1.7-3.6-3.7-3.7h-9.3c-2.1-0.1-4,1.5-4.1,3.7s1.5,4,3.7,4.1  C365.5,354.8,365.6,354.8,365.7,354.8L365.7,354.8z" style="" fill="currentColor"></path><path d="M421,354.8h9.3c2.1,0.1,4-1.5,4.1-3.7s-1.5-4-3.7-4.1c-0.1,0-0.3,0-0.4,0H421c-2.1,0.1-3.8,1.9-3.7,4.1  C417.4,353.1,419,354.7,421,354.8z" style="" fill="currentColor"></path><path d="M365.7,381.5h9.3c2.1-0.1,3.8-1.9,3.7-4.1c-0.1-2-1.7-3.6-3.7-3.7h-9.3c-2.1-0.1-4,1.5-4.1,3.7s1.5,4,3.7,4.1  C365.5,381.5,365.6,381.5,365.7,381.5L365.7,381.5z" style="" fill="currentColor"></path><path d="M421,381.5h9.3c2.1,0.1,4-1.5,4.1-3.7s-1.5-4-3.7-4.1c-0.1,0-0.3,0-0.4,0H421c-2.1,0.1-3.8,1.9-3.7,4.1  C417.4,379.8,419,381.4,421,381.5z" style="" fill="currentColor"></path></svg>

