<svg xmlns="http://www.w3.org/2000/svg" xmlns:xlink="http://www.w3.org/1999/xlink" version="1.1" x="0px" y="0px" viewBox="0 0 128 128" style="enable-background:new 0 0 128 128;max-width:100%" xml:space="preserve" height="50" width="50" ><g style="" fill="#C09A64"><circle cx="34.5" cy="45.5" r="1.5" style="" fill="#C09A64"></circle><circle cx="55.5" cy="45.5" r="1.5" style="" fill="#C09A64"></circle><path d="M79.476,81.597L58,75.64v-7.207c3.873-3.065,6.641-7.445,7.61-12.464C70.288,55.653,74,51.757,74,47V23.28   c0-4.555-2.943-8.627-7.222-10.084C64.114,5.88,57.175,1,49.351,1H45c-5.666,0-11.157,1.638-15.879,4.736   c-6.111,4.011-13.56,4.315-19.436,0.792C6.961,4.895,5.809,3.41,5.8,3.399L4,1.004V4c0,3.321,0.866,5.789,1.711,7.406   C4.05,10.615,2.726,9.311,2.706,9.292L1,7.595V10c0,8.979,4.199,16.028,12.145,20.387c0.944,0.518,1.9,0.976,2.855,1.385V47   c0,4.727,3.665,8.606,8.302,8.965c0.867,5.191,3.692,9.716,7.698,12.797v6.878l-21.476,5.957C4.917,83.153,1,88.304,1,94.124V127   h24h40h24V94.124C89,88.304,85.083,83.153,79.476,81.597z M52.573,102.91l-0.126-0.252c-0.512-1.022-1.54-1.658-2.684-1.658h-3.058   L59.51,78.135l5.915,1.641L52.573,102.91z M37.553,102.658l-0.126,0.252L24.575,79.776l5.915-1.641L43.294,101h-3.058   C39.093,101,38.064,101.636,37.553,102.658z M32.886,77.47C34.418,79.251,38.42,83,45,83s10.582-3.749,12.114-5.53l0.413,0.115   L45,99.954l-12.527-22.37L32.886,77.47z M65.901,53.935C65.96,53.297,66,52.653,66,52V40.08c3.386,0.488,6,3.401,6,6.92   C72,50.553,69.336,53.49,65.901,53.935z M3.089,12.174C4.356,13.053,6.151,14,8,14l2.376-0.004l-1.665-1.699   c-0.022-0.023-1.88-1.962-2.507-5.753C6.849,7.062,7.66,7.646,8.657,8.243c6.54,3.923,14.803,3.603,21.562-0.835   C34.613,4.524,39.725,3,45,3h4.351c7.135,0,13.444,4.548,15.701,11.316l0.166,0.5l0.508,0.146C69.42,16.017,72,19.438,72,23.28   v18.075c-1.463-1.811-3.611-3.046-6.048-3.304C65.463,31.326,59.848,26,53,26l-0.646,0.013l-0.269,0.581   C52.057,26.658,48.937,33,32,33C30.854,33,4.802,32.757,3.089,12.174z M18,32.55c2.088,0.748,4.133,1.278,6,1.64v3.869   c-2.417,0.269-4.547,1.497-6,3.296V32.55z M18,47c0-3.519,2.614-6.432,6-6.92V52.6c0,0.449,0.039,0.889,0.067,1.331   C20.648,53.472,18,50.542,18,47z M26,52.6V34.531C28.767,34.938,30.949,35,32,35c15.515,0,20.343-5.16,21.564-6.985   C59.368,28.31,64,33.124,64,39v13c0,10.477-8.567,19-19.098,19H44.4C34.254,71,26,62.746,26,52.6z M44.4,73h0.502   c4.074,0,7.869-1.175,11.098-3.174v5.847C55.207,76.708,51.524,81,45,81c-6.584,0-10.211-4.277-11-5.325v-5.557   C37.05,71.936,40.599,73,44.4,73z M11.06,83.524l0.426-0.118l3.44,8.601C16.302,95.449,17,99.072,17,102.777V116H3V94.124   C3,89.199,6.314,84.841,11.06,83.524z M3,118h14v7H3V118z M19,125v-22.223c0-3.96-0.746-7.834-2.217-11.513l-3.359-8.396   l9.168-2.543L36.3,105H30c-2.757,0-5,2.243-5,5v15H19z M37,117c0-4.411,3.589-8,8-8s8,3.589,8,8s-3.589,8-8,8S37,121.411,37,117z    M50.974,125c2.438-1.825,4.026-4.727,4.026-8c0-5.514-4.486-10-10-10s-10,4.486-10,10c0,3.273,1.588,6.175,4.026,8H27v-15   c0-1.654,1.346-3,3-3h7.618l1.724-3.447c0.17-0.341,0.513-0.553,0.895-0.553h9.527c0.382,0,0.725,0.212,0.895,0.553L52.382,107H60   c1.654,0,3,1.346,3,3v15H50.974z M60,105h-6.3l13.708-24.675l9.168,2.543l-3.359,8.396C71.746,94.943,71,98.817,71,102.777V125h-6   v-15C65,107.243,62.757,105,60,105z M73,125v-7h14v7H73z M87,116H73v-13.223c0-3.705,0.698-7.328,2.074-10.771l3.44-8.601   l0.426,0.118c4.745,1.316,8.06,5.675,8.06,10.6V116z" style="" fill="#C09A64"></path><path d="M40,42v10c0,2.757,2.243,5,5,5s5-2.243,5-5V42c0-0.552,0.448-1,1-1h10v-2H51c-1.654,0-3,1.346-3,3v10c0,1.654-1.346,3-3,3   s-3-1.346-3-3V42c0-1.654-1.346-3-3-3H29v2h10C39.552,41,40,41.448,40,42z" style="" fill="#C09A64"></path><path d="M54.75,60.58l-1.5-1.322C51.155,61.636,48.148,63,45,63s-6.155-1.364-8.25-3.742l-1.5,1.322C37.724,63.389,41.277,65,45,65   S52.276,63.389,54.75,60.58z" style="" fill="#C09A64"></path><path d="M45,111c-3.309,0-6,2.691-6,6s2.691,6,6,6s6-2.691,6-6S48.309,111,45,111z M45,121c-2.206,0-4-1.794-4-4s1.794-4,4-4   s4,1.794,4,4S47.206,121,45,121z" style="" fill="#C09A64"></path><path d="M32,109c-1.654,0-3,1.346-3,3s1.346,3,3,3s3-1.346,3-3S33.654,109,32,109z M32,113c-0.552,0-1-0.448-1-1s0.448-1,1-1   s1,0.448,1,1S32.552,113,32,113z" style="" fill="#C09A64"></path><rect x="29" y="121" width="2" height="2" style="" fill="#C09A64"></rect><rect x="29" y="117" width="2" height="2" style="" fill="#C09A64"></rect><rect x="59" y="121" width="2" height="2" style="" fill="#C09A64"></rect><rect x="59" y="117" width="2" height="2" style="" fill="#C09A64"></rect><path d="M116,70h-10v8h10V70z M114,76h-6v-4h6V76z" style="" fill="#C09A64"></path><path d="M124.883,20.265L124.596,20H87.404l-0.287,0.265C85.752,21.525,85,23.207,85,25s0.752,3.475,2.117,4.735L87.404,30H88   v5.212L91.461,43H90v8h2v8h-2v8h2v3.111c-0.664-0.678-1.463-1.222-2.354-1.588l-4.699-4.028L83.269,50.22   C83.052,48.384,81.495,47,79.646,47C77.636,47,76,48.636,76,50.646v20.768l4.022,4.022C80.249,79.092,83.288,82,87,82   c1.958,0,3.728-0.81,5-2.111V88h2v3c0,1.654,1.346,3,3,3h18c1.654,0,3-1.346,3-3v-3h2V67h2v-8h-2v-8h2v-8h-1.461L124,35.212V30   h0.596l0.287-0.265C126.248,28.475,127,26.793,127,25S126.248,21.525,124.883,20.265z M110,49v-4h4v4H110z M108,49h-4v-4h4V49z    M102,49h-4v-4h4V49z M96,49h-4v-4h4V49z M92,61h4v4h-4V61z M110,65v-4h4v4H110z M108,65h-4v-4h4V65z M102,65h-4v-4h4V65z    M78,50.646C78,49.738,78.738,49,79.646,49c0.835,0,1.538,0.625,1.636,1.454l1.771,15.051l2.996,2.568   c-2.707,0.37-4.928,2.288-5.728,4.834L78,70.586V50.646z M87,80c-2.757,0-5-2.243-5-5s2.243-5,5-5s5,2.243,5,5S89.757,80,87,80z    M116,91c0,0.552-0.448,1-1,1H97c-0.552,0-1-0.448-1-1v-3h20V91z M94,86v-3h24v3H94z M118,81H94V67h24V81z M120,65h-4v-4h4V65z    M118,59H94v-8h24V59z M120,49h-4v-4h4V49z M93.65,43l-3.111-7h30.923l-3.111,7H93.65z M122,34H90v-4h32V34z M123.793,28H88.207   C87.426,27.161,87,26.108,87,25s0.426-2.161,1.207-3h35.586c0.781,0.839,1.207,1.892,1.207,3S124.574,27.161,123.793,28z" style="" fill="#C09A64"></path><path d="M100,78c2.206,0,4-1.794,4-4s-1.794-4-4-4s-4,1.794-4,4S97.794,78,100,78z M100,72c1.103,0,2,0.897,2,2s-0.897,2-2,2   s-2-0.897-2-2S98.897,72,100,72z" style="" fill="#C09A64"></path><path d="M87,72c-1.654,0-3,1.346-3,3s1.346,3,3,3s3-1.346,3-3S88.654,72,87,72z M87,76c-0.552,0-1-0.448-1-1s0.448-1,1-1   s1,0.448,1,1S87.552,76,87,76z" style="" fill="#C09A64"></path><rect x="95" y="38" width="2" height="2" style="" fill="#C09A64"></rect><rect x="99" y="38" width="2" height="2" style="" fill="#C09A64"></rect><rect x="103" y="38" width="2" height="2" style="" fill="#C09A64"></rect><rect x="107" y="38" width="2" height="2" style="" fill="#C09A64"></rect><rect x="111" y="38" width="2" height="2" style="" fill="#C09A64"></rect><rect x="115" y="38" width="2" height="2" style="" fill="#C09A64"></rect></g></svg>